<svg width="89" height="19" viewBox="0 0 89 19" fill="none" xmlns="http://www.w3.org/2000/svg">
<path d="M32.4488 13.8453C29.9274 13.8453 28.0207 12.0026 28.0207 9.0803C28.0207 6.158 29.9889 4.25219 32.4791 4.25219C35.0006 4.25219 36.9072 6.12685 36.9072 9.01715C36.9072 11.9395 34.9703 13.8453 32.4488 13.8453ZM53.9113 7.46084C52.958 7.77834 52.4662 8.15984 52.4662 8.98515C52.4662 10.0656 53.1736 10.3511 54.2187 10.5415C55.0794 10.6998 56.4327 10.9541 56.4327 12.3521C56.4327 13.4958 55.3868 13.9084 54.3416 13.9084H48.807C48.7443 13.9112 48.6818 13.9007 48.6235 13.8775C48.5652 13.8544 48.5125 13.8191 48.4689 13.774C48.4252 13.729 48.3917 13.6751 48.3704 13.6161C48.3491 13.5571 48.3406 13.4943 48.3455 13.4318V4.66486C48.3406 4.60233 48.3491 4.53946 48.3704 4.48046C48.3917 4.42146 48.4252 4.36767 48.4689 4.32261C48.5125 4.27755 48.5652 4.24225 48.6235 4.21908C48.6818 4.19592 48.7443 4.18538 48.807 4.18819H53.4195C54.5884 4.18819 55.5417 4.56884 55.5417 5.7445C55.5417 6.79299 54.7113 7.20566 53.9121 7.46L53.9113 7.46084ZM43.9494 2.53588V15.5599C43.9094 15.8756 43.9409 16.1964 44.0414 16.4983C44.142 16.8003 44.3092 17.0758 44.5305 17.3045C44.7519 17.5332 45.0218 17.7093 45.3203 17.8197C45.6188 17.9301 45.9383 17.972 46.2552 17.9424H54.3113C58.4009 17.9424 60.7379 16.0686 60.7379 12.8599C60.7941 11.9715 60.5766 11.0872 60.1148 10.3262C59.653 9.56516 58.969 8.96398 58.1549 8.60365C58.7039 8.17753 59.1436 7.62684 59.4377 6.99715C59.7317 6.36746 59.8717 5.67683 59.846 4.98234C59.846 1.96488 57.7549 0.154247 53.7883 0.154247H46.2544C45.9375 0.124764 45.6181 0.166805 45.3196 0.277263C45.0212 0.387722 44.7514 0.563777 44.53 0.792447C44.3087 1.02112 44.1416 1.29657 44.0409 1.59846C43.9403 1.90035 43.9087 2.22099 43.9485 2.53672L43.9494 2.53588ZM2.25735 18.1024C2.56359 18.111 2.86822 18.0552 3.15157 17.9387C3.43491 17.8222 3.69065 17.6476 3.90226 17.4261C4.11387 17.2045 4.27664 16.9411 4.38004 16.6527C4.48344 16.3643 4.52518 16.0574 4.50256 15.7519V6.19002L9.36099 9.17632C9.69892 9.39943 10.0938 9.52075 10.4987 9.52582C10.8823 9.5078 11.254 9.38709 11.575 9.17632L16.4949 6.12685V15.6551C16.468 15.962 16.5043 16.2712 16.6017 16.5635C16.6991 16.8558 16.8555 17.1249 17.0612 17.3543C17.2668 17.5837 17.5174 17.7684 17.7974 17.897C18.0774 18.0256 18.3808 18.0953 18.6889 18.1018C18.9969 18.1084 19.303 18.0516 19.5882 17.935C19.8733 17.8184 20.1315 17.6445 20.3468 17.424C20.562 17.2035 20.7296 16.9412 20.8393 16.6533C20.949 16.3654 20.9984 16.058 20.9845 15.7502V2.34892C21.0147 2.0556 20.9804 1.75921 20.8839 1.48056C20.7874 1.20191 20.6312 0.947744 20.426 0.735893C20.2209 0.524041 19.972 0.359636 19.6966 0.25421C19.4212 0.148783 19.1261 0.104897 18.8319 0.125616C18.4303 0.122196 18.036 0.23225 17.6942 0.44311L10.8061 4.56969C10.7498 4.61581 10.6793 4.64101 10.6065 4.64101C10.5338 4.64101 10.4632 4.61581 10.4069 4.56969L3.39595 0.471741C3.0473 0.246849 2.64192 0.125637 2.22703 0.122237C1.92449 0.101132 1.621 0.146439 1.33781 0.254981C1.05462 0.363523 0.798588 0.532682 0.587656 0.750593C0.376725 0.968505 0.215997 1.2299 0.116729 1.51647C0.0174613 1.80305 -0.0179455 2.10785 0.0129947 2.40955V15.6551C-0.0210628 15.9673 0.0120134 16.2832 0.110002 16.5816C0.207991 16.88 0.368628 17.1541 0.581154 17.3853C0.79368 17.6166 1.05319 17.7998 1.34227 17.9226C1.63136 18.0454 1.94336 18.1049 2.25735 18.0973V18.1024ZM88.5081 3.73933C88.8183 3.27865 88.9891 2.73828 88.9999 2.18301C89.0025 1.86598 88.9283 1.55305 88.7837 1.2709C88.6391 0.988761 88.4284 0.745789 88.1696 0.562696C87.791 0.266819 87.3277 0.0997856 86.8474 0.0860243C86.4786 0.100933 86.1187 0.203893 85.7979 0.386299C85.477 0.568704 85.2045 0.825264 85.0031 1.13452L79.929 8.0276C78.9462 9.15739 78.3912 10.5964 78.3609 12.0936V15.6551C78.3259 15.9675 78.3582 16.2838 78.4559 16.5826C78.5535 16.8815 78.7141 17.1559 78.9268 17.3874C79.1395 17.6189 79.3995 17.802 79.689 17.9245C79.9786 18.047 80.291 18.1059 80.6053 18.0973C80.9121 18.1033 81.2168 18.046 81.5005 17.929C81.7841 17.812 82.0407 17.6378 82.254 17.4172C82.4674 17.1967 82.633 16.9345 82.7405 16.6471C82.8481 16.3597 82.8953 16.0533 82.8791 15.7469V11.7811C82.8748 11.541 82.9507 11.3063 83.0947 11.1141L88.5081 3.73933ZM76.6084 1.13452L79.0069 4.37432C79.3726 4.82417 79.5783 5.38297 79.5913 5.96262C79.5807 6.28041 79.4977 6.59159 79.3485 6.8724C79.1993 7.15321 78.988 7.39624 78.7306 7.58295C78.3758 7.88443 77.9322 8.06185 77.4674 8.08825C77.1026 8.05876 76.7495 7.94612 76.4351 7.75897C76.1206 7.57182 75.8532 7.31513 75.6534 7.00859L73.1319 3.83195C72.7679 3.40571 72.5615 2.8672 72.5475 2.30681C72.5582 1.98317 72.6378 1.66555 72.781 1.37511C72.9242 1.08467 73.1277 0.828092 73.3779 0.622488C73.7501 0.286825 74.2301 0.0953486 74.7312 0.0826575C75.1044 0.0969096 75.4689 0.199352 75.7949 0.381595C76.1209 0.563838 76.3991 0.820708 76.6067 1.13116L76.6084 1.13452ZM74.0238 13.5194H67.7514C67.6887 13.5222 67.6262 13.5116 67.5679 13.4885C67.5096 13.4653 67.4569 13.43 67.4133 13.3849C67.3696 13.3399 67.3361 13.2861 67.3148 13.2271C67.2935 13.1681 67.285 13.1052 67.2899 13.0427V2.50555C67.3249 2.19306 67.2925 1.87668 67.1949 1.57777C67.0972 1.27887 66.9365 1.00439 66.7237 0.772889C66.5109 0.541389 66.2509 0.358249 65.9612 0.235834C65.6716 0.113418 65.359 0.0545844 65.0447 0.0632921C64.7379 0.0573133 64.4331 0.114617 64.1495 0.231632C63.8658 0.348646 63.6093 0.522853 63.3959 0.743397C63.1826 0.963941 63.017 1.22609 62.9094 1.51348C62.8019 1.80087 62.7547 2.10734 62.7708 2.41376V15.5649C62.7309 15.8807 62.7623 16.2014 62.8629 16.5034C62.9635 16.8054 63.1306 17.0809 63.352 17.3096C63.5733 17.5383 63.8432 17.7143 64.1418 17.8247C64.4403 17.9351 64.7598 17.9771 65.0767 17.9474H73.9253C74.2302 17.9861 74.5399 17.9576 74.8327 17.8639C75.1254 17.7701 75.3941 17.6133 75.6198 17.4047C75.8455 17.196 76.0227 16.9404 76.1391 16.6559C76.2555 16.3714 76.3082 16.0648 76.2934 15.7578C76.307 15.4579 76.2571 15.1585 76.147 14.8792C76.0368 14.5998 75.8689 14.347 75.6543 14.1371C75.4396 13.9272 75.183 13.765 74.9013 13.6611C74.6196 13.5573 74.3191 13.5141 74.0196 13.5345L74.0238 13.5194ZM32.4471 18.1091C33.6445 18.1269 34.8332 17.9039 35.9427 17.4534C37.0522 17.003 38.0598 16.3342 38.9059 15.4868C39.752 14.6394 40.4192 13.6306 40.8679 12.5204C41.3166 11.4102 41.5377 10.2212 41.5181 9.02388C41.5487 7.83171 41.3366 6.64575 40.8947 5.53807C40.4528 4.43039 39.7903 3.42413 38.9475 2.58038C38.1048 1.73664 37.0992 1.07304 35.992 0.629916C34.8848 0.186789 33.6991 -0.0266226 32.5069 0.00265122C31.3056 -0.0148756 30.113 0.209066 28.9999 0.661194C27.8868 1.11332 26.8758 1.78443 26.0269 2.63469C25.1781 3.48494 24.5087 4.49703 24.0584 5.61091C23.6081 6.72479 23.3862 7.91777 23.4057 9.11905C23.3791 10.3112 23.5951 11.4963 24.0407 12.6024C24.4863 13.7085 25.1521 14.7125 25.9976 15.5533C26.8432 16.3941 27.8508 17.0543 28.9594 17.4937C30.068 17.933 31.2543 18.1424 32.4463 18.1091" fill="#FF4600"/>
</svg>
